<svg xmlns="http://www.w3.org/2000/svg" width="780" height="420" viewBox="0 0 780 420" role="img" aria-label="Daily bytes on wire, Palimpsest vs raw remote-write, log scale">
<rect width="780" height="420" rx="8" fill="#fcfcfb"/>
<g font-family="system-ui, -apple-system, 'Segoe UI', sans-serif">
<text x="84" y="30" font-size="16" font-weight="600" fill="#0b0b0b">Bytes on wire per day — 10000 raw series, 30 simulated days</text>
<text x="84" y="50" font-size="11.5" fill="#52514e">flush 10s · keyframe every 6 windows · 8 emitters · three scripted incidents · log scale</text>
<line x1="84.0" y1="364.0" x2="608.0" y2="364.0" stroke="#e1e0d9" stroke-width="1"/>
<text x="76.0" y="368.0" font-size="11" fill="#898781" text-anchor="end" style="font-variant-numeric: tabular-nums">100 MB</text>
<line x1="84.0" y1="224.0" x2="608.0" y2="224.0" stroke="#e1e0d9" stroke-width="1"/>
<text x="76.0" y="228.0" font-size="11" fill="#898781" text-anchor="end" style="font-variant-numeric: tabular-nums">1 GB</text>
<line x1="84.0" y1="84.0" x2="608.0" y2="84.0" stroke="#e1e0d9" stroke-width="1"/>
<text x="76.0" y="88.0" font-size="11" fill="#898781" text-anchor="end" style="font-variant-numeric: tabular-nums">10 GB</text>
<line x1="215.0" y1="78.0" x2="215.0" y2="364.0" stroke="#c3c2b7" stroke-width="1" stroke-dasharray="4 3"/>
<text x="215.0" y="72.0" font-size="10.5" fill="#898781" text-anchor="middle">spike</text>
<line x1="334.4" y1="78.0" x2="334.4" y2="364.0" stroke="#c3c2b7" stroke-width="1" stroke-dasharray="4 3"/>
<text x="334.4" y="72.0" font-size="10.5" fill="#898781" text-anchor="middle">leak</text>
<line x1="461.0" y1="78.0" x2="461.0" y2="364.0" stroke="#c3c2b7" stroke-width="1" stroke-dasharray="4 3"/>
<text x="461.0" y="72.0" font-size="10.5" fill="#898781" text-anchor="middle">azdown</text>
<polyline points="84.0,316.9 102.1,316.9 120.1,316.9 138.2,316.9 156.3,316.9 174.3,316.9 192.4,316.9 210.5,316.8 228.6,316.9 246.6,316.9 264.7,316.9 282.8,316.9 300.8,316.9 318.9,316.9 337.0,316.9 355.0,316.9 373.1,316.9 391.2,316.9 409.2,316.9 427.3,316.9 445.4,316.9 463.4,316.9 481.5,316.9 499.6,316.9 517.7,316.9 535.7,316.9 553.8,316.9 571.9,316.9 589.9,316.9 608.0,316.9" fill="none" stroke="#2a78d6" stroke-width="2" stroke-linejoin="round"/>
<line x1="614.0" y1="316.9" x2="626.0" y2="316.9" stroke="#2a78d6" stroke-width="3"/>
<text x="632.0" y="320.9" font-size="11" fill="#52514e">Palimpsest (total)</text>
<polyline points="84.0,166.0 102.1,165.6 120.1,165.6 138.2,165.6 156.3,165.6 174.3,165.6 192.4,165.6 210.5,165.6 228.6,165.6 246.6,165.6 264.7,165.6 282.8,165.7 300.8,165.6 318.9,165.6 337.0,165.6 355.0,165.6 373.1,165.6 391.2,165.6 409.2,165.6 427.3,165.6 445.4,165.6 463.4,165.6 481.5,165.6 499.6,165.6 517.7,165.6 535.7,165.6 553.8,165.6 571.9,165.6 589.9,165.6 608.0,165.7" fill="none" stroke="#1baf7a" stroke-width="2" stroke-linejoin="round"/>
<line x1="614.0" y1="165.7" x2="626.0" y2="165.7" stroke="#1baf7a" stroke-width="3"/>
<text x="632.0" y="169.7" font-size="11" fill="#52514e">remote-write, snappy</text>
<polyline points="84.0,203.6 102.1,203.1 120.1,203.1 138.2,203.0 156.3,203.1 174.3,203.1 192.4,203.1 210.5,203.1 228.6,203.1 246.6,203.1 264.7,203.1 282.8,203.1 300.8,203.0 318.9,203.1 337.0,203.0 355.0,203.0 373.1,203.1 391.2,203.0 409.2,203.0 427.3,203.0 445.4,203.1 463.4,203.1 481.5,203.1 499.6,203.1 517.7,203.1 535.7,203.1 553.8,203.1 571.9,203.1 589.9,203.1 608.0,203.1" fill="none" stroke="#eda100" stroke-width="2" stroke-linejoin="round"/>
<line x1="614.0" y1="203.1" x2="626.0" y2="203.1" stroke="#eda100" stroke-width="3"/>
<text x="632.0" y="207.1" font-size="11" fill="#52514e">remote-write, zstd</text>
<text x="84.0" y="382.0" font-size="11" fill="#898781" text-anchor="middle" style="font-variant-numeric: tabular-nums">0</text>
<text x="138.2" y="382.0" font-size="11" fill="#898781" text-anchor="middle" style="font-variant-numeric: tabular-nums">3</text>
<text x="192.4" y="382.0" font-size="11" fill="#898781" text-anchor="middle" style="font-variant-numeric: tabular-nums">6</text>
<text x="246.6" y="382.0" font-size="11" fill="#898781" text-anchor="middle" style="font-variant-numeric: tabular-nums">9</text>
<text x="300.8" y="382.0" font-size="11" fill="#898781" text-anchor="middle" style="font-variant-numeric: tabular-nums">12</text>
<text x="355.0" y="382.0" font-size="11" fill="#898781" text-anchor="middle" style="font-variant-numeric: tabular-nums">15</text>
<text x="409.2" y="382.0" font-size="11" fill="#898781" text-anchor="middle" style="font-variant-numeric: tabular-nums">18</text>
<text x="463.4" y="382.0" font-size="11" fill="#898781" text-anchor="middle" style="font-variant-numeric: tabular-nums">21</text>
<text x="517.7" y="382.0" font-size="11" fill="#898781" text-anchor="middle" style="font-variant-numeric: tabular-nums">24</text>
<text x="571.9" y="382.0" font-size="11" fill="#898781" text-anchor="middle" style="font-variant-numeric: tabular-nums">27</text>
<text x="346.0" y="404.0" font-size="12" fill="#52514e" text-anchor="middle">simulated day</text>
<line x1="84.0" y1="364.0" x2="608.0" y2="364.0" stroke="#c3c2b7" stroke-width="1"/>
</g>
</svg>
